With: Sven Martinek, Eva Habermann and Thomas Anzenhofer

Wanneer de partner van agent Max Zanders wordt gedood bij een aanslag van de Russische maffia, besluit hij het recht in eigen hand te nemen. Overdag werkt hij als agent voor het World Intelligence Police Agency, maar 's nachts kruipt hij in de huid van de gemaskerde wreker, "De Clown". Hij verklaart de oorlog aan de onderwereld, die probeert de macht over te nemen in Düsseldorf. Plotseling gaan gangsteroperaties in vlammen op en verdwijnt misdaadgeld naar liefdadige instellingen. En steeds duikt zijn visitekaart op: een grijnzend clownsmasker.

When mobster Zorbeck kills his long time girl friend Claudia, The Clown (Max Hecker) gets Zorbeck arrested and then retires from crime fighting. Max works as a simple guard for a security company until he hears that Zorbeck has escaped from prison. He must come back again to seek justice. But Zorbeck and his team of criminals are not so easily outdone, and the Clown (Max) faces the most dangerous task of his life.
 
http://www.imdb.com/title/tt0373762	

------------------------ Dutch Friends ------------------------
---------------------------------------------------------------
- Bezoek ook eens mijn vrienden op:  http://www.Film-Test.nl --
----- voor mijn Nederlandse Sync. ondertitels ---- en meer ----
------- http://www.Film-Test.nl ---- Over Films en meer -------
---------------------------------------------------------------

General:

Complete name                    : The ClownThe Clown.avi
Format                           : AVI
Format/Info                      : Audio Video Interleave
File size                        : 1.45 GiB
Duration                         : 1h 33mn
Overall bit rate                 : 2 221 Kbps

Video:

Format                           : MPEG-4 Visual
Format profile                   : Simple@L3
Format settings, BVOP            : No
Format settings, QPel            : No
Format settings, GMC             : No warppoints
Format settings, Matrix          : Default (H.263)
Codec ID                         : XVID
Codec ID/Hint                    : XviD
Duration                         : 1h 33mn
Bit rate                         : 1 987 Kbps
Width                            : 640 pixels
Height                           : 480 pixels
Display aspect ratio             : 4:3
Frame rate                       : 25.000 fps
Color space                      : YUV
Chroma subsampling               : 4:2:0
Bit depth                        : 8 bits
Scan type                        : Progressive
Compression mode                 : Lossy
Bits/(Pixel*Frame)               : 0.259
Stream size                      : 1.30 GiB (89%)
Writing library                  : XviD 1.1.2 (UTC 2006-11-01)

Audio:

Format                           : AC-3
Format/Info                      : Audio Coding 3
Mode extension                   : CM (complete main)
Codec ID                         : 2000
Duration                         : 1h 33mn
Bit rate mode                    : Constant
Bit rate                         : 224 Kbps
Channel(s)                       : 2 channels
Channel positions                : Front: L R
Sampling rate                    : 48.0 KHz
Bit depth                        : 16 bits
Compression mode                 : Lossy
Stream size                      : 150 MiB (10%)
Alignment                        : Aligned on interleaves
Interleave, duration             : 32 ms (0.80 video frame)
Interleave, preload duration     : 32 ms